{
  "accessors": [
    {
      "bufferView": 2,
      "componentType": 5126,
      "count": 2078,
      "max": [
        0.012500002980232239,
        0.02543715573847294,
        0.012500003911554813
      ],
      "min": [
        -0.012500002980232239,
        0.0033630775287747383,
        -0.012500002048909664
      ],
      "type": "VEC3"
    },
    {
      "bufferView": 2,
      "byteOffset": 24936,
      "componentType": 5126,
      "count": 2078,
      "max": [
        1.0,
        0.9784695506095886,
        0.9920547604560852
      ],
      "min": [
        -1.0,
        -0.9984616637229919,
        -1.0
      ],
      "type": "VEC3"
    },
    {
      "bufferView": 3,
      "componentType": 5126,
      "count": 2078,
      "max": [
        0.9630594253540039,
        0.9808428883552551,
        1.0,
        1.0
      ],
      "min": [
        -0.9685641527175903,
        -0.999975323677063,
        -1.0,
        1.0
      ],
      "type": "VEC4"
    },
    {
      "bufferView": 1,
      "componentType": 5126,
      "count": 2078,
      "max": [
        0.9493328332901001,
        0.9807869791984558
      ],
      "min": [
        0.019213072955608368,
        0.019213072955608368
      ],
      "type": "VEC2"
    },
    {
      "bufferView": 0,
      "componentType": 5125,
      "count": 10992,
      "type": "SCALAR"
    },
    {
      "bufferView": 2,
      "byteOffset": 49872,
      "componentType": 5126,
      "count": 460,
      "max": [
        0.027777517214417458,
        0.06543716043233871,
        0.027777519077062607
      ],
      "min": [
        -0.027777520939707756,
        0.02543715573847294,
        -0.027777519077062607
      ],
      "type": "VEC3"
    },
    {
      "bufferView": 2,
      "byteOffset": 55392,
      "componentType": 5126,
      "count": 460,
      "max": [
        0.9924858212471008,
        0.9745945930480957,
        0.9924858212471008
      ],
      "min": [
        -0.9924858212471008,
        -0.9066658616065979,
        -0.9924858212471008
      ],
      "type": "VEC3"
    },
    {
      "bufferView": 3,
      "byteOffset": 33248,
      "componentType": 5126,
      "count": 460,
      "max": [
        0.9960365891456604,
        0.41938284039497375,
        0.96942138671875,
        1.0
      ],
      "min": [
        -0.9767575860023499,
        -0.9923731088638306,
        -0.9873663187026978,
        1.0
      ],
      "type": "VEC4"
    },
    {
      "bufferView": 1,
      "byteOffset": 16624,
      "componentType": 5126,
      "count": 460,
      "max": [
        0.8355648517608643,
        0.9881287217140198
      ],
      "min": [
        0.011871356517076492,
        0.011871356517076492
      ],
      "type": "VEC2"
    },
    {
      "bufferView": 0,
      "byteOffset": 43968,
      "componentType": 5125,
      "count": 2292,
      "type": "SCALAR"
    },
    {
      "bufferView": 2,
      "byteOffset": 60912,
      "componentType": 5126,
      "count": 461,
      "max": [
        0.02984999492764473,
        0.10528714954853058,
        0.029849987477064133
      ],
      "min": [
        -0.029849983751773834,
        0.06543716043233871,
        -0.029850007966160774
      ],
      "type": "VEC3"
    },
    {
      "bufferView": 2,
      "byteOffset": 66444,
      "componentType": 5126,
      "count": 461,
      "max": [
        1.0,
        1.0,
        1.0
      ],
      "min": [
        -1.0,
        -0.9838840961456299,
        -1.0
      ],
      "type": "VEC3"
    },
    {
      "bufferView": 3,
      "byteOffset": 40608,
      "componentType": 5126,
      "count": 461,
      "max": [
        0.9980700016021729,
        0.9999641180038452,
        0.9789124727249146,
        1.0
      ],
      "min": [
        -0.997756838798523,
        -0.2261030673980713,
        -0.9950087070465088,
        1.0
      ],
      "type": "VEC4"
    },
    {
      "bufferView": 1,
      "byteOffset": 20304,
      "componentType": 5126,
      "count": 461,
      "max": [
        0.9009947776794434,
        0.9778957366943359
      ],
      "min": [
        0.022104233503341675,
        0.022104233503341675
      ],
      "type": "VEC2"
    },
    {
      "bufferView": 0,
      "byteOffset": 53136,
      "componentType": 5125,
      "count": 2298,
      "type": "SCALAR"
    },
    {
      "bufferView": 2,
      "byteOffset": 71976,
      "componentType": 5126,
      "count": 192,
      "max": [
        0.003123861737549305,
        0.0005628478829748929,
        0.0031238615047186613
      ],
      "min": [
        -0.0031238612718880177,
        5.820766091346741e-11,
        -0.0031238608062267303
      ],
      "type": "VEC3"
    },
    {
      "bufferView": 2,
      "byteOffset": 74280,
      "componentType": 5126,
      "count": 192,
      "max": [
        0.8409222960472107,
        0.5411576628684998,
        0.8409217596054077
      ],
      "min": [
        -0.840921938419342,
        -0.9991135001182556,
        -0.8409215807914734
      ],
      "type": "VEC3"
    },
    {
      "bufferView": 3,
      "byteOffset": 47984,
      "componentType": 5126,
      "count": 192,
      "max": [
        0.6572907567024231,
        0.8303123712539673,
        0.9867925047874451,
        1.0
      ],
      "min": [
        -0.992385745048523,
        -0.8302720785140991,
        -0.8006176352500916,
        1.0
      ],
      "type": "VEC4"
    },
    {
      "bufferView": 1,
      "byteOffset": 23992,
      "componentType": 5126,
      "count": 192,
      "max": [
        0.9723164439201355,
        0.9763603210449219
      ],
      "min": [
        0.020091623067855835,
        0.02011030912399292
      ],
      "type": "VEC2"
    },
    {
      "bufferView": 0,
      "byteOffset": 62328,
      "componentType": 5125,
      "count": 948,
      "type": "SCALAR"
    },
    {
      "bufferView": 2,
      "byteOffset": 76584,
      "componentType": 5126,
      "count": 370,
      "max": [
        0.006186914164572954,
        0.003363077761605382,
        0.006186914164572954
      ],
      "min": [
        -0.006186914164572954,
        0.0005628478829748929,
        -0.006186913698911667
      ],
      "type": "VEC3"
    },
    {
      "bufferView": 2,
      "byteOffset": 81024,
      "componentType": 5126,
      "count": 370,
      "max": [
        0.9203131198883057,
        0.3911830484867096,
        0.9203131794929504
      ],
      "min": [
        -0.9203131794929504,
        -0.9981490969657898,
        -0.9203131198883057
      ],
      "type": "VEC3"
    },
    {
      "bufferView": 3,
      "byteOffset": 51056,
      "componentType": 5126,
      "count": 370,
      "max": [
        0.9570901393890381,
        0.8924606442451477,
        0.9788320064544678,
        1.0
      ],
      "min": [
        -0.9996682405471802,
        -0.9202216267585754,
        -0.9996586441993713,
        1.0
      ],
      "type": "VEC4"
    },
    {
      "bufferView": 1,
      "byteOffset": 25528,
      "componentType": 5126,
      "count": 370,
      "max": [
        0.9836059808731079,
        0.9679701328277588
      ],
      "min": [
        0.016394000500440598,
        0.016394000500440598
      ],
      "type": "VEC2"
    },
    {
      "bufferView": 0,
      "byteOffset": 66120,
      "componentType": 5125,
      "count": 1716,
      "type": "SCALAR"
    }
  ],
  "asset": {
    "extras": {
      "author": "Neonlight (https://sketchfab.com/neonlight)",
      "license": "CC-BY-4.0 (http://creativecommons.org/licenses/by/4.0/)",
      "source": "https://sketchfab.com/3d-models/led-bulb-dad5418b03ea40a3ada62a285b1d7640",
      "title": "Led Bulb"
    },
    "generator": "Sketchfab-14.56.0",
    "version": "2.0"
  },
  "bufferViews": [
    {
      "buffer": 0,
      "byteLength": 72984,
      "name": "floatBufferViews",
      "target": 34963
    },
    {
      "buffer": 0,
      "byteLength": 28488,
      "byteOffset": 72984,
      "byteStride": 8,
      "name": "floatBufferViews",
      "target": 34962
    },
    {
      "buffer": 0,
      "byteLength": 85464,
      "byteOffset": 101472,
      "byteStride": 12,
      "name": "floatBufferViews",
      "target": 34962
    },
    {
      "buffer": 0,
      "byteLength": 56976,
      "byteOffset": 186936,
      "byteStride": 16,
      "name": "floatBufferViews",
      "target": 34962
    }
  ],
  "buffers": [
    {
      "byteLength": 243912,
      "uri": "scene.bin"
    }
  ],
  "images": [
    {
      "uri": "textures/Metal_baseColor.png"
    },
    {
      "uri": "textures/Metal_metallicRoughness.png"
    },
    {
      "uri": "textures/Metal_normal.png"
    },
    {
      "uri": "textures/Blanco_baseColor.png"
    },
    {
      "uri": "textures/Blanco_metallicRoughness.png"
    },
    {
      "uri": "textures/Blanco_normal.png"
    },
    {
      "uri": "textures/Difuso_baseColor.png"
    },
    {
      "uri": "textures/Difuso_metallicRoughness.png"
    },
    {
      "uri": "textures/Difuso_normal.png"
    },
    {
      "uri": "textures/Metal_2_baseColor.png"
    },
    {
      "uri": "textures/Metal_2_metallicRoughness.png"
    },
    {
      "uri": "textures/Metal_2_normal.png"
    },
    {
      "uri": "textures/Blanco_2_baseColor.png"
    },
    {
      "uri": "textures/Blanco_2_metallicRoughness.png"
    },
    {
      "uri": "textures/Blanco_2_normal.png"
    }
  ],
  "materials": [
    {
      "doubleSided": true,
      "name": "Metal",
      "normalTexture": {
        "index": 2
      },
      "pbrMetallicRoughness": {
        "baseColorTexture": {
          "index": 0
        },
        "metallicRoughnessTexture": {
          "index": 1
        }
      }
    },
    {
      "doubleSided": true,
      "name": "Blanco",
      "normalTexture": {
        "index": 5
      },
      "pbrMetallicRoughness": {
        "baseColorTexture": {
          "index": 3
        },
        "metallicFactor": 0.0,
        "metallicRoughnessTexture": {
          "index": 4
        }
      }
    },
    {
      "doubleSided": true,
      "name": "Difuso",
      "normalTexture": {
        "index": 8
      },
      "pbrMetallicRoughness": {
        "baseColorTexture": {
          "index": 6
        },
        "metallicFactor": 0.0,
        "metallicRoughnessTexture": {
          "index": 7
        }
      }
    },
    {
      "doubleSided": true,
      "name": "Metal_2",
      "normalTexture": {
        "index": 11
      },
      "pbrMetallicRoughness": {
        "baseColorTexture": {
          "index": 9
        },
        "metallicRoughnessTexture": {
          "index": 10
        }
      }
    },
    {
      "doubleSided": true,
      "name": "Blanco_2",
      "normalTexture": {
        "index": 14
      },
      "pbrMetallicRoughness": {
        "baseColorTexture": {
          "index": 12
        },
        "metallicFactor": 0.0,
        "metallicRoughnessTexture": {
          "index": 13
        }
      }
    }
  ],
  "meshes": [
    {
      "name": "Object_0",
      "primitives": [
        {
          "attributes": {
            "NORMAL": 1,
            "POSITION": 0,
            "TANGENT": 2,
            "TEXCOORD_0": 3
          },
          "indices": 4,
          "material": 0,
          "mode": 4
        }
      ]
    },
    {
      "name": "Object_1",
      "primitives": [
        {
          "attributes": {
            "NORMAL": 6,
            "POSITION": 5,
            "TANGENT": 7,
            "TEXCOORD_0": 8
          },
          "indices": 9,
          "material": 1,
          "mode": 4
        }
      ]
    },
    {
      "name": "Object_2",
      "primitives": [
        {
          "attributes": {
            "NORMAL": 11,
            "POSITION": 10,
            "TANGENT": 12,
            "TEXCOORD_0": 13
          },
          "indices": 14,
          "material": 2,
          "mode": 4
        }
      ]
    },
    {
      "name": "Object_3",
      "primitives": [
        {
          "attributes": {
            "NORMAL": 16,
            "POSITION": 15,
            "TANGENT": 17,
            "TEXCOORD_0": 18
          },
          "indices": 19,
          "material": 3,
          "mode": 4
        }
      ]
    },
    {
      "name": "Object_4",
      "primitives": [
        {
          "attributes": {
            "NORMAL": 21,
            "POSITION": 20,
            "TANGENT": 22,
            "TEXCOORD_0": 23
          },
          "indices": 24,
          "material": 4,
          "mode": 4
        }
      ]
    }
  ],
  "nodes": [
    {
      "children": [
        1
      ],
      "matrix": [
        1.0,
        0.0,
        0.0,
        0.0,
        0.0,
        2.220446049250313e-16,
        -1.0,
        0.0,
        0.0,
        1.0,
        2.220446049250313e-16,
        0.0,
        0.0,
        0.0,
        0.0,
        1.0
      ],
      "name": "Sketchfab_model"
    },
    {
      "children": [
        2
      ],
      "name": "root"
    },
    {
      "children": [
        3,
        5,
        7,
        9,
        11
      ],
      "matrix": [
        1.0,
        0.0,
        0.0,
        0.0,
        0.0,
        2.220446049250313e-16,
        1.0,
        0.0,
        0.0,
        -1.0,
        2.220446049250313e-16,
        0.0,
        0.0,
        0.0,
        0.0,
        1.0
      ],
      "name": "GLTF_SceneRootNode"
    },
    {
      "children": [
        4
      ],
      "name": "Rosca_1"
    },
    {
      "mesh": 0,
      "name": "Object_4"
    },
    {
      "children": [
        6
      ],
      "name": "Estructura_2"
    },
    {
      "mesh": 1,
      "name": "Object_6"
    },
    {
      "children": [
        8
      ],
      "name": "LED_3"
    },
    {
      "mesh": 2,
      "name": "Object_8"
    },
    {
      "children": [
        10
      ],
      "name": "Conector_4"
    },
    {
      "mesh": 3,
      "name": "Object_10"
    },
    {
      "children": [
        12
      ],
      "name": "Interseccion_5"
    },
    {
      "mesh": 4,
      "name": "Object_12"
    }
  ],
  "samplers": [
    {
      "magFilter": 9729,
      "minFilter": 9987,
      "wrapS": 10497,
      "wrapT": 10497
    }
  ],
  "scene": 0,
  "scenes": [
    {
      "name": "Sketchfab_Scene",
      "nodes": [
        0
      ]
    }
  ],
  "textures": [
    {
      "sampler": 0,
      "source": 0
    },
    {
      "sampler": 0,
      "source": 1
    },
    {
      "sampler": 0,
      "source": 2
    },
    {
      "sampler": 0,
      "source": 3
    },
    {
      "sampler": 0,
      "source": 4
    },
    {
      "sampler": 0,
      "source": 5
    },
    {
      "sampler": 0,
      "source": 6
    },
    {
      "sampler": 0,
      "source": 7
    },
    {
      "sampler": 0,
      "source": 8
    },
    {
      "sampler": 0,
      "source": 9
    },
    {
      "sampler": 0,
      "source": 10
    },
    {
      "sampler": 0,
      "source": 11
    },
    {
      "sampler": 0,
      "source": 12
    },
    {
      "sampler": 0,
      "source": 13
    },
    {
      "sampler": 0,
      "source": 14
    }
  ]
}
